<?xml version="1.0" encoding="UTF-8" standalone="no"?>
<!-- Created with Inkscape (http://www.inkscape.org/) -->

<svg
   xmlns:dc="http://purl.org/dc/elements/1.1/"
   xmlns:cc="http://creativecommons.org/ns#"
   xmlns:rdf="http://www.w3.org/1999/02/22-rdf-syntax-ns#"
   xmlns:svg="http://www.w3.org/2000/svg"
   xmlns="http://www.w3.org/2000/svg"
   xmlns:sodipodi="http://sodipodi.sourceforge.net/DTD/sodipodi-0.dtd"
   xmlns:inkscape="http://www.inkscape.org/namespaces/inkscape"
   width="210mm"
   height="297mm"
   viewBox="0 0 210 297"
   version="1.1"
   id="svg8"
   inkscape:version="0.92.4 (5da689c313, 2019-01-14)"
   sodipodi:docname="e.svg">
  <defs
     id="defs2">
    <clipPath
       clipPathUnits="userSpaceOnUse"
       id="clipPath310">
      <path
         d="M 0,500 H 500 V 0 H 0 Z"
         id="path308"
         inkscape:connector-curvature="0" />
    </clipPath>
  </defs>
  <sodipodi:namedview
     id="base"
     pagecolor="#ffffff"
     bordercolor="#666666"
     borderopacity="1.0"
     inkscape:pageopacity="0.0"
     inkscape:pageshadow="2"
     inkscape:zoom="0.35"
     inkscape:cx="400"
     inkscape:cy="560"
     inkscape:document-units="mm"
     inkscape:current-layer="layer1"
     showgrid="false"
     inkscape:window-width="1366"
     inkscape:window-height="705"
     inkscape:window-x="-8"
     inkscape:window-y="-8"
     inkscape:window-maximized="1" />
  <metadata
     id="metadata5">
    <rdf:RDF>
      <cc:Work
         rdf:about="">
        <dc:format>image/svg+xml</dc:format>
        <dc:type
           rdf:resource="http://purl.org/dc/dcmitype/StillImage" />
        <dc:title></dc:title>
      </cc:Work>
    </rdf:RDF>
  </metadata>
  <g
     inkscape:label="Camada 1"
     inkscape:groupmode="layer"
     id="layer1">
    <g
       transform="matrix(2.9181705,0,0,-2.331236,-1106.6529,1125.7737)"
       id="g304">
      <g
         id="g306"
         clip-path="url(#clipPath310)">
        <g
           id="g312"
           transform="translate(404.6309,400.9067)">
          <path
             d="m 0,0 c 0.236,2.36 -0.471,11.796 -1.338,15.493 -0.863,3.696 -3.064,11.796 -2.988,17.065 0.078,5.269 2.359,15.807 2.832,17.459 0.473,1.651 0.078,6.055 0.392,7.156 0.315,1.101 1.731,3.933 3.934,4.011 2.201,0.079 2.83,-2.281 3.303,-5.505 0.47,-3.224 1.258,-9.752 -1.18,-10.223 -2.439,-0.472 -3.934,1.887 -4.326,3.775 -0.393,1.887 -0.033,4.476 -0.943,5.583"
             style="fill:none;stroke:#009788;stroke-width:1;stroke-linecap:round;stroke-linejoin:round;stroke-miterlimit:10;stroke-dasharray:none;stroke-opacity:1"
             id="path314"
             inkscape:connector-curvature="0" />
        </g>
        <g
           id="g316"
           transform="translate(409.168,461.439)">
          <path
             d="m 0,0 c 0.338,2.696 1.439,4.427 3.799,4.82 2.359,0.393 3.068,-2.045 3.224,-5.741 0.159,-3.696 1.165,-11.734 0,-12.255 -1.16,-0.52 -4.566,-1.381 -4.919,0"
             style="fill:none;stroke:#009788;stroke-width:1;stroke-linecap:round;stroke-linejoin:round;stroke-miterlimit:10;stroke-dasharray:none;stroke-opacity:1"
             id="path318"
             inkscape:connector-curvature="0" />
        </g>
        <g
           id="g320"
           transform="translate(415.9668,462.9468)">
          <path
             d="m 0,0 c 0.934,2.132 2.111,4.181 5.1,3.354 2.988,-0.829 2.752,-3.267 2.359,-6.176 -0.393,-2.91 0.314,-9.122 -1.887,-10.066 -2.201,-0.945 -4.375,-1.573 -4.822,0"
             style="fill:none;stroke:#009788;stroke-width:1;stroke-linecap:round;stroke-linejoin:round;stroke-miterlimit:10;stroke-dasharray:none;stroke-opacity:1"
             id="path322"
             inkscape:connector-curvature="0" />
        </g>
        <g
           id="g324"
           transform="translate(423.5371,460.9951)">
          <path
             d="m 0,0 c 0.676,2.511 2.721,3.927 4.844,2.826 2.123,-1.101 3.773,-2.359 4.01,-4.09 0.236,-1.73 -0.788,-10.538 -0.549,-13.605 0.234,-3.067 0.078,-4.403 0.078,-4.403"
             style="fill:none;stroke:#009788;stroke-width:1;stroke-linecap:round;stroke-linejoin:round;stroke-miterlimit:10;stroke-dasharray:none;stroke-opacity:1"
             id="path326"
             inkscape:connector-curvature="0" />
        </g>
        <g
           id="g328"
           transform="translate(423.5371,400.9067)">
          <path
             d="m 0,0 c -0.74,4.248 -1.525,14.864 -0.582,18.088 0.943,3.224 6.447,10.921 8.336,13.679 1.887,2.757 3.303,5.116 1.809,7.318 -1.497,2.203 -5.68,6.268 -6.92,7.345 -1.416,1.227 -2.569,3.474 -4.641,2.722 -2.072,-0.753 -7.279,-2.617 -9.061,-2.684 -1.783,-0.068 -3.443,-0.889 -1.556,-3.034 1.886,-2.146 5.078,-3.202 7.426,-2.243 1.501,0.613 2.509,-0.3 3.558,-0.966 1.049,-0.668 4.891,-4.6 6.076,-4.914"
             style="fill:none;stroke:#009788;stroke-width:1;stroke-linecap:round;stroke-linejoin:round;stroke-miterlimit:10;stroke-dasharray:none;stroke-opacity:1"
             id="path330"
             inkscape:connector-curvature="0" />
        </g>
        <g
           id="g332"
           transform="translate(419.3535,442.375)">
          <path
             d="M 0,0 C 1.178,0.677 2.369,2.745 2.553,3.405"
             style="fill:none;stroke:#009788;stroke-width:1;stroke-linecap:round;stroke-linejoin:round;stroke-miterlimit:10;stroke-dasharray:none;stroke-opacity:1"
             id="path334"
             inkscape:connector-curvature="0" />
        </g>
        <g
           id="g336"
           transform="translate(415.1699,441.7227)">
          <path
             d="M 0,0 C -1.652,-0.944 -3.697,-5.663 -4.482,-11.482"
             style="fill:none;stroke:#009788;stroke-width:1;stroke-linecap:round;stroke-linejoin:round;stroke-miterlimit:10;stroke-dasharray:none;stroke-opacity:1"
             id="path338"
             inkscape:connector-curvature="0" />
        </g>
        <g
           id="g340"
           transform="translate(411.2715,443.978)">
          <path
             d="M 0,0 C -1.057,-0.21 -5.539,-0.37 -6.404,-0.093"
             style="fill:none;stroke:#009788;stroke-width:1;stroke-linecap:round;stroke-linejoin:round;stroke-miterlimit:10;stroke-dasharray:none;stroke-opacity:1"
             id="path342"
             inkscape:connector-curvature="0" />
        </g>
        <g
           id="g344"
           transform="translate(431.291,458.1587)">
          <path
             d="m 0,0 c -0.709,-0.944 -1.338,-4.512 -1.338,-5.874 0,-1.361 -0.551,-3.563 -1.414,-4.271 -0.865,-0.707 -2.359,-0.677 -2.359,-0.677"
             style="fill:none;stroke:#009788;stroke-width:1;stroke-linecap:round;stroke-linejoin:round;stroke-miterlimit:10;stroke-dasharray:none;stroke-opacity:1"
             id="path346"
             inkscape:connector-curvature="0" />
        </g>
        <g
           id="g348"
           transform="translate(407.6211,450.3818)">
          <path
             d="M 0,0 C -0.5,-0.61 -0.207,-3.525 1.547,-3.273 3.299,-3.021 2.795,-0.226 2.568,0 2.342,0.227 0.227,0.277 0,0 Z"
             style="fill:none;stroke:#009788;stroke-width:1;stroke-linecap:round;stroke-linejoin:round;stroke-miterlimit:10;stroke-dasharray:none;stroke-opacity:1"
             id="path350"
             inkscape:connector-curvature="0" />
        </g>
        <g
           id="g352"
           transform="translate(412.3535,452.5225)">
          <path
             d="M 0,0 C -0.582,-0.689 -0.83,-3.827 0.127,-4.18 1.086,-4.533 2.77,-4.281 2.973,-3.097 3.174,-1.914 2.922,-0.378 2.594,0 2.266,0.377 0.279,0.327 0,0 Z"
             style="fill:none;stroke:#009788;stroke-width:1;stroke-linecap:round;stroke-linejoin:round;stroke-miterlimit:10;stroke-dasharray:none;stroke-opacity:1"
             id="path354"
             inkscape:connector-curvature="0" />
        </g>
        <g
           id="g356"
           transform="translate(417.9707,454.4355)">
          <path
             d="m 0,0 c -0.348,-0.608 -1.16,-3.971 0.301,-4.226 1.461,-0.256 2.82,0.272 2.97,1.381 C 3.424,-1.737 3.07,-0.252 2.693,0 2.314,0.252 0.1,0.177 0,0 Z"
             style="fill:none;stroke:#009788;stroke-width:1;stroke-linecap:round;stroke-linejoin:round;stroke-miterlimit:10;stroke-dasharray:none;stroke-opacity:1"
             id="path358"
             inkscape:connector-curvature="0" />
        </g>
        <g
           id="g360"
           transform="translate(424.9707,452.7871)">
          <path
             d="m 0,0 c -0.527,-0.709 -0.982,-2.909 -0.277,-3.687 0.447,-0.492 2.039,-1.287 2.92,-0.405 0.882,0.881 0.636,3.047 0.369,3.499 C 2.744,-0.139 0.254,0.341 0,0 Z"
             style="fill:none;stroke:#009788;stroke-width:1;stroke-linecap:round;stroke-linejoin:round;stroke-miterlimit:10;stroke-dasharray:none;stroke-opacity:1"
             id="path362"
             inkscape:connector-curvature="0" />
        </g>
        <g
           id="g364"
           transform="translate(404.8672,421.9829)">
          <path
             d="M 0,0 C 4.561,-2.595 6.434,0.55 10.531,-2.595"
             style="fill:none;stroke:#009788;stroke-width:1;stroke-linecap:round;stroke-linejoin:round;stroke-miterlimit:10;stroke-dasharray:none;stroke-opacity:1"
             id="path366"
             inkscape:connector-curvature="0" />
        </g>
        <g
           id="g368"
           transform="translate(410.9961,447.0933)">
          <path
             d="m 0,0 c -0.162,-1.126 1.293,-2.083 3.25,-1.833 1.957,0.249 1.152,2.711 1.152,2.711"
             style="fill:none;stroke:#009788;stroke-width:1;stroke-linecap:round;stroke-linejoin:round;stroke-miterlimit:10;stroke-dasharray:none;stroke-opacity:1"
             id="path370"
             inkscape:connector-curvature="0" />
        </g>
      </g>
    </g>
  </g>
</svg>
