<?xml version="1.0" encoding="UTF-8" standalone="no"?>
<!-- Created with Inkscape (http://www.inkscape.org/) -->

<svg
   xmlns:dc="http://purl.org/dc/elements/1.1/"
   xmlns:cc="http://creativecommons.org/ns#"
   xmlns:rdf="http://www.w3.org/1999/02/22-rdf-syntax-ns#"
   xmlns:svg="http://www.w3.org/2000/svg"
   xmlns="http://www.w3.org/2000/svg"
   xmlns:sodipodi="http://sodipodi.sourceforge.net/DTD/sodipodi-0.dtd"
   xmlns:inkscape="http://www.inkscape.org/namespaces/inkscape"
   width="210mm"
   height="297mm"
   viewBox="0 0 210 297"
   version="1.1"
   id="svg8"
   inkscape:version="0.92.4 (5da689c313, 2019-01-14)"
   sodipodi:docname="i.svg">
  <defs
     id="defs2">
    <clipPath
       clipPathUnits="userSpaceOnUse"
       id="clipPath1662">
      <path
         d="M 0,500 H 500 V 0 H 0 Z"
         id="path1660"
         inkscape:connector-curvature="0" />
    </clipPath>
  </defs>
  <sodipodi:namedview
     id="base"
     pagecolor="#ffffff"
     bordercolor="#666666"
     borderopacity="1.0"
     inkscape:pageopacity="0.0"
     inkscape:pageshadow="2"
     inkscape:zoom="0.35"
     inkscape:cx="400"
     inkscape:cy="560"
     inkscape:document-units="mm"
     inkscape:current-layer="layer1"
     showgrid="false"
     inkscape:window-width="1366"
     inkscape:window-height="705"
     inkscape:window-x="-8"
     inkscape:window-y="-8"
     inkscape:window-maximized="1" />
  <metadata
     id="metadata5">
    <rdf:RDF>
      <cc:Work
         rdf:about="">
        <dc:format>image/svg+xml</dc:format>
        <dc:type
           rdf:resource="http://purl.org/dc/dcmitype/StillImage" />
        <dc:title></dc:title>
      </cc:Work>
    </rdf:RDF>
  </metadata>
  <g
     inkscape:label="Camada 1"
     inkscape:groupmode="layer"
     id="layer1">
    <g
       transform="matrix(3.0234044,0,0,-2.3152281,-927.08002,931.67653)"
       id="g1656">
      <g
         id="g1658"
         clip-path="url(#clipPath1662)">
        <g
           id="g1664"
           transform="translate(330.0352,319.7964)">
          <path
             d="m 0,0 c 0.314,2.123 -0.08,13.605 -0.629,17.144 -0.551,3.539 -2.596,8.813 -2.359,14.512 0.234,5.699 2.595,9.946 2.674,11.912 0.08,1.966 0.472,14.234 0.785,17.065 0.316,2.831 1.416,6.134 3.697,5.427 2.281,-0.708 1.414,-7.393 1.414,-9.123 0,-1.73 0.162,-7.471 0.162,-7.471"
             style="fill:none;stroke:#ebba32;stroke-width:1;stroke-linecap:round;stroke-linejoin:round;stroke-miterlimit:10;stroke-dasharray:none;stroke-opacity:1"
             id="path1666"
             inkscape:connector-curvature="0" />
        </g>
        <g
           id="g1668"
           transform="translate(350.6387,353.833)">
          <path
             d="m 0,0 c -0.863,-0.692 -1.494,-1.194 -2.359,0 -0.864,1.195 -1.022,1.981 -2.043,2.061 -1.024,0.078 -4.563,0 -6.45,1.337 -1.888,1.336 -2.988,3.617 -2.437,4.325 0.549,0.707 4.496,0.786 6.574,1.494 2.076,0.707 4.75,2.595 6.715,1.1 C 1.967,8.823 4.326,4.262 6.135,2.061 7.943,-0.142 9.596,-2.737 7.707,-5.411 5.82,-8.084 -0.863,-14.533 -1.73,-17.678 -2.594,-20.825 -3.316,-32.306 -2.443,-34.037"
             style="fill:none;stroke:#ebba32;stroke-width:1;stroke-linecap:round;stroke-linejoin:round;stroke-miterlimit:10;stroke-dasharray:none;stroke-opacity:1"
             id="path1670"
             inkscape:connector-curvature="0" />
        </g>
        <g
           id="g1672"
           transform="translate(339.6445,362.2383)">
          <path
             d="M 0,0 C 0.064,2.227 0.693,6.081 -1.115,6.709 -2.926,7.339 -4.812,7.352 -5.6,5.104 -6.385,2.856 -6.307,-6.327 -6.229,-9.364 c 0.081,-3.036 0.991,-4.137 3.168,-3.98 2.18,0.157 2.575,2.564 2.731,4.939 0.158,2.374 0.066,3.711 0.066,3.711"
             style="fill:none;stroke:#ebba32;stroke-width:1;stroke-linecap:round;stroke-linejoin:round;stroke-miterlimit:10;stroke-dasharray:none;stroke-opacity:1"
             id="path1674"
             inkscape:connector-curvature="0" />
        </g>
        <g
           id="g1676"
           transform="translate(339.8027,367.7686)">
          <path
             d="M 0,0 C 0.457,1.572 1.242,2.988 3.051,2.673 4.859,2.359 6.512,1.651 6.434,0 6.354,-1.652 5.998,-3.938 5.998,-3.938"
             style="fill:none;stroke:#ebba32;stroke-width:1;stroke-linecap:round;stroke-linejoin:round;stroke-miterlimit:10;stroke-dasharray:none;stroke-opacity:1"
             id="path1678"
             inkscape:connector-curvature="0" />
        </g>
        <g
           id="g1680"
           transform="translate(346.2383,368.4761)">
          <path
             d="m 0,0 c 1.098,1.809 1.336,3.303 3.693,3.225 2.36,-0.08 4.639,-2.322 5.034,-4.543 0.392,-2.221 0.599,-9.608 0.599,-9.608"
             style="fill:none;stroke:#ebba32;stroke-width:1;stroke-linecap:round;stroke-linejoin:round;stroke-miterlimit:10;stroke-dasharray:none;stroke-opacity:1"
             id="path1682"
             inkscape:connector-curvature="0" />
        </g>
        <g
           id="g1684"
           transform="translate(353.7852,365.8809)">
          <path
             d="M 0,0 C -0.234,-1.259 -1.256,-3.811 -1.256,-3.811"
             style="fill:none;stroke:#ebba32;stroke-width:1;stroke-linecap:round;stroke-linejoin:round;stroke-miterlimit:10;stroke-dasharray:none;stroke-opacity:1"
             id="path1686"
             inkscape:connector-curvature="0" />
        </g>
        <g
           id="g1688"
           transform="translate(344.3613,355.9897)">
          <path
             d="m 0,0 c -0.248,-1.276 1.01,-2.752 2.346,-3.115 1.338,-0.363 1.98,0.502 1.98,0.502"
             style="fill:none;stroke:#ebba32;stroke-width:1;stroke-linecap:round;stroke-linejoin:round;stroke-miterlimit:10;stroke-dasharray:none;stroke-opacity:1"
             id="path1690"
             inkscape:connector-curvature="0" />
        </g>
        <g
           id="g1692"
           transform="translate(338.4766,350.0737)">
          <path
             d="M 0,0 C 1.311,-1.258 4.219,-0.942 4.85,0.983 5.477,2.909 5.477,5.916 5.477,5.916"
             style="fill:none;stroke:#ebba32;stroke-width:1;stroke-linecap:round;stroke-linejoin:round;stroke-miterlimit:10;stroke-dasharray:none;stroke-opacity:1"
             id="path1694"
             inkscape:connector-curvature="0" />
        </g>
        <g
           id="g1696"
           transform="translate(331.0566,376.9697)">
          <path
             d="M 0,0 C 0.865,0.393 2.988,0.393 3.539,0"
             style="fill:none;stroke:#ebba32;stroke-width:1;stroke-linecap:round;stroke-linejoin:round;stroke-miterlimit:10;stroke-dasharray:none;stroke-opacity:1"
             id="path1698"
             inkscape:connector-curvature="0" />
        </g>
        <g
           id="g1700"
           transform="translate(331.0566,370.9141)">
          <path
             d="M 0,0 C 1.023,0.472 2.832,0.157 3.539,0"
             style="fill:none;stroke:#ebba32;stroke-width:1;stroke-linecap:round;stroke-linejoin:round;stroke-miterlimit:10;stroke-dasharray:none;stroke-opacity:1"
             id="path1702"
             inkscape:connector-curvature="0" />
        </g>
        <g
           id="g1704"
           transform="translate(329.5625,356.915)">
          <path
             d="M 0,0 C 1.18,-0.471 3.807,-0.55 3.807,-0.55"
             style="fill:none;stroke:#ebba32;stroke-width:1;stroke-linecap:round;stroke-linejoin:round;stroke-miterlimit:10;stroke-dasharray:none;stroke-opacity:1"
             id="path1706"
             inkscape:connector-curvature="0" />
        </g>
        <g
           id="g1708"
           transform="translate(338.9805,349.7065)">
          <path
             d="M 0,0 C -0.846,-1.284 -2.451,-6.003 -2.396,-7.969"
             style="fill:none;stroke:#ebba32;stroke-width:1;stroke-linecap:round;stroke-linejoin:round;stroke-miterlimit:10;stroke-dasharray:none;stroke-opacity:1"
             id="path1710"
             inkscape:connector-curvature="0" />
        </g>
        <g
           id="g1712"
           transform="translate(334.5957,353.833)">
          <path
             d="M 0,0 C -0.17,-0.642 -0.156,-3.943 0.787,-4.126 1.73,-4.31 2.992,-4.231 3.188,-3.288 3.383,-2.344 3.936,-0.408 3.188,0 2.439,0.409 0.158,0.595 0,0 Z"
             style="fill:none;stroke:#ebba32;stroke-width:1;stroke-linecap:round;stroke-linejoin:round;stroke-miterlimit:10;stroke-dasharray:none;stroke-opacity:1"
             id="path1714"
             inkscape:connector-curvature="0" />
        </g>
        <g
           id="g1716"
           transform="translate(339.8027,354.3877)">
          <path
             d="m 0,0 c 1.322,0.405 2.264,-0.206 2.5,-1.513 0.236,-1.307 -0.707,-2.88 -1.65,-2.801 -0.944,0.078 -1.672,0.983 -1.672,0.983"
             style="fill:none;stroke:#ebba32;stroke-width:1;stroke-linecap:round;stroke-linejoin:round;stroke-miterlimit:10;stroke-dasharray:none;stroke-opacity:1"
             id="path1718"
             inkscape:connector-curvature="0" />
        </g>
        <g
           id="g1720"
           transform="translate(345.1348,355.9897)">
          <path
             d="M 0,0 C 0.236,-1.197 1.18,-2.801 3.145,-2.157"
             style="fill:none;stroke:#ebba32;stroke-width:1;stroke-linecap:round;stroke-linejoin:round;stroke-miterlimit:10;stroke-dasharray:none;stroke-opacity:1"
             id="path1722"
             inkscape:connector-curvature="0" />
        </g>
        <g
           id="g1724"
           transform="translate(331.4043,335.9966)">
          <path
             d="m 0,0 c 2.326,-0.629 4.742,0 6.76,0 2.015,0 4.551,-0.551 4.855,-0.629"
             style="fill:none;stroke:#ebba32;stroke-width:1;stroke-linecap:round;stroke-linejoin:round;stroke-miterlimit:10;stroke-dasharray:none;stroke-opacity:1"
             id="path1726"
             inkscape:connector-curvature="0" />
        </g>
      </g>
    </g>
  </g>
</svg>
