<?xml version="1.0" encoding="UTF-8" standalone="no"?>
<!-- Created with Inkscape (http://www.inkscape.org/) -->

<svg
   xmlns:dc="http://purl.org/dc/elements/1.1/"
   xmlns:cc="http://creativecommons.org/ns#"
   xmlns:rdf="http://www.w3.org/1999/02/22-rdf-syntax-ns#"
   xmlns:svg="http://www.w3.org/2000/svg"
   xmlns="http://www.w3.org/2000/svg"
   xmlns:sodipodi="http://sodipodi.sourceforge.net/DTD/sodipodi-0.dtd"
   xmlns:inkscape="http://www.inkscape.org/namespaces/inkscape"
   width="210mm"
   height="297mm"
   viewBox="0 0 210 297"
   version="1.1"
   id="svg8"
   inkscape:version="0.92.4 (5da689c313, 2019-01-14)"
   sodipodi:docname="u.svg">
  <defs
     id="defs2">
    <clipPath
       clipPathUnits="userSpaceOnUse"
       id="clipPath594">
      <path
         d="M 0,500 H 500 V 0 H 0 Z"
         id="path592"
         inkscape:connector-curvature="0" />
    </clipPath>
  </defs>
  <sodipodi:namedview
     id="base"
     pagecolor="#ffffff"
     bordercolor="#666666"
     borderopacity="1.0"
     inkscape:pageopacity="0.0"
     inkscape:pageshadow="2"
     inkscape:zoom="0.35"
     inkscape:cx="400"
     inkscape:cy="560"
     inkscape:document-units="mm"
     inkscape:current-layer="layer1"
     showgrid="false"
     inkscape:window-width="1366"
     inkscape:window-height="705"
     inkscape:window-x="-8"
     inkscape:window-y="-8"
     inkscape:window-maximized="1" />
  <metadata
     id="metadata5">
    <rdf:RDF>
      <cc:Work
         rdf:about="">
        <dc:format>image/svg+xml</dc:format>
        <dc:type
           rdf:resource="http://purl.org/dc/dcmitype/StillImage" />
        <dc:title></dc:title>
      </cc:Work>
    </rdf:RDF>
  </metadata>
  <g
     inkscape:label="Camada 1"
     inkscape:groupmode="layer"
     id="layer1">
    <g
       transform="matrix(3.2484667,0,0,-1.9424761,-145.30139,294.47626)"
       id="g588">
      <g
         id="g590"
         clip-path="url(#clipPath594)">
        <g
           id="g596"
           transform="translate(69.4507,52.9053)">
          <path
             d="m 0,0 c 0.413,3.71 0.515,15.249 -0.515,18.648 -1.029,3.4 -3.297,7.314 -3.915,11.126 -0.618,3.813 -0.515,13.909 -0.824,15.762 -0.309,1.855 0.412,7.111 2.06,7.728 1.65,0.619 3.489,-0.72 3.489,-0.72"
             style="fill:none;stroke:#009788;stroke-width:1;stroke-linecap:round;stroke-linejoin:round;stroke-miterlimit:10;stroke-dasharray:none;stroke-opacity:1"
             id="path598"
             inkscape:connector-curvature="0" />
        </g>
        <g
           id="g600"
           transform="translate(79.1348,77.1162)">
          <path
             d="m 0,0 c -1.957,2.576 -0.927,12.879 0,14.526 0.928,1.65 1.152,3.401 -0.557,4.123 -1.709,0.719 -6.243,2.78 -7.376,4.017 -1.133,1.236 -1.957,5.46 -0.617,6.079 1.339,0.618 4.532,-1.442 5.872,-1.854 1.34,-0.412 3.812,0.307 6.181,-1.341 2.37,-1.648 7.624,-8.139 9.479,-9.273 1.854,-1.131 1.03,-4.738 0,-8.448 C 11.952,4.122 9.788,-2.369 9.582,-5.77 9.376,-9.168 8.86,-22.356 9.17,-24.211"
             style="fill:none;stroke:#009788;stroke-width:1;stroke-linecap:round;stroke-linejoin:round;stroke-miterlimit:10;stroke-dasharray:none;stroke-opacity:1"
             id="path602"
             inkscape:connector-curvature="0" />
        </g>
        <g
           id="g604"
           transform="translate(65.3301,100.3994)">
          <path
             d="m 0,0 c 1.236,-1.958 2.061,-5.254 2.988,-7.314 0.927,-2.061 2.781,-3.4 4.224,-3.193 1.442,0.205 1.648,2.163 1.648,2.163"
             style="fill:none;stroke:#009788;stroke-width:1;stroke-linecap:round;stroke-linejoin:round;stroke-miterlimit:10;stroke-dasharray:none;stroke-opacity:1"
             id="path606"
             inkscape:connector-curvature="0" />
        </g>
        <g
           id="g608"
           transform="translate(72.9097,98.5439)">
          <path
             d="m 0,0 c 0.147,-2.677 -0.575,-7.004 4.062,-6.488 2.189,0.243 1.606,3.71 1.606,3.71"
             style="fill:none;stroke:#009788;stroke-width:1;stroke-linecap:round;stroke-linejoin:round;stroke-miterlimit:10;stroke-dasharray:none;stroke-opacity:1"
             id="path610"
             inkscape:connector-curvature="0" />
        </g>
        <g
           id="g612"
           transform="translate(68.2144,106.333)">
          <path
             d="M 0,0 C 0.309,2.515 1.251,6.327 4.695,5.4 8.139,4.473 8.944,-2.448 8.944,-2.448"
             style="fill:none;stroke:#009788;stroke-width:1;stroke-linecap:round;stroke-linejoin:round;stroke-miterlimit:10;stroke-dasharray:none;stroke-opacity:1"
             id="path614"
             inkscape:connector-curvature="0" />
        </g>
        <g
           id="g616"
           transform="translate(80.269,106.333)">
          <path
             d="m 0,0 c 0.516,2.309 -0.515,9.623 -0.825,12.716 -0.309,3.089 -3.297,10.611 0,10.816 3.298,0.206 5.564,-7.83 7.006,-13.496 1.442,-5.667 1.545,-10.441 2.472,-12.484 0.928,-2.042 1.511,-7.318 1.219,-8.749"
             style="fill:none;stroke:#009788;stroke-width:1;stroke-linecap:round;stroke-linejoin:round;stroke-miterlimit:10;stroke-dasharray:none;stroke-opacity:1"
             id="path618"
             inkscape:connector-curvature="0" />
        </g>
        <g
           id="g620"
           transform="translate(77.9077,129.042)">
          <path
             d="m 0,0 c -0.833,2.575 -2.467,4.224 -4.998,3.192 -2.531,-1.028 0.353,-10.816 0.766,-14.113 0.411,-3.298 0.112,-6.783 0.112,-6.783"
             style="fill:none;stroke:#009788;stroke-width:1;stroke-linecap:round;stroke-linejoin:round;stroke-miterlimit:10;stroke-dasharray:none;stroke-opacity:1"
             id="path622"
             inkscape:connector-curvature="0" />
        </g>
        <g
           id="g624"
           transform="translate(80.3716,121.9424)">
          <path
             d="M 0,0 C 1.031,0.401 3.69,0 3.69,0"
             style="fill:none;stroke:#009788;stroke-width:1;stroke-linecap:round;stroke-linejoin:round;stroke-miterlimit:10;stroke-dasharray:none;stroke-opacity:1"
             id="path626"
             inkscape:connector-curvature="0" />
        </g>
        <g
           id="g628"
           transform="translate(81.5557,114.2061)">
          <path
             d="M 0,0 C 1.083,0.309 3.658,0 4.173,0"
             style="fill:none;stroke:#009788;stroke-width:1;stroke-linecap:round;stroke-linejoin:round;stroke-miterlimit:10;stroke-dasharray:none;stroke-opacity:1"
             id="path630"
             inkscape:connector-curvature="0" />
        </g>
        <g
           id="g632"
           transform="translate(82.2168,106.333)">
          <path
             d="M 0,0 C 1.04,0.455 5.058,-0.78 5.058,-0.78"
             style="fill:none;stroke:#009788;stroke-width:1;stroke-linecap:round;stroke-linejoin:round;stroke-miterlimit:10;stroke-dasharray:none;stroke-opacity:1"
             id="path634"
             inkscape:connector-curvature="0" />
        </g>
        <g
           id="g636"
           transform="translate(74.1904,123.4785)">
          <path
             d="M 0,0 C 0.927,0.206 2.968,0 2.968,0"
             style="fill:none;stroke:#009788;stroke-width:1;stroke-linecap:round;stroke-linejoin:round;stroke-miterlimit:10;stroke-dasharray:none;stroke-opacity:1"
             id="path638"
             inkscape:connector-curvature="0" />
        </g>
        <g
           id="g640"
           transform="translate(74.894,115.0293)">
          <path
             d="M 0,0 C 1.666,0.413 3.166,0.517 3.755,0.31"
             style="fill:none;stroke:#009788;stroke-width:1;stroke-linecap:round;stroke-linejoin:round;stroke-miterlimit:10;stroke-dasharray:none;stroke-opacity:1"
             id="path642"
             inkscape:connector-curvature="0" />
        </g>
        <g
           id="g644"
           transform="translate(75.6743,92.0137)">
          <path
             d="M 0,0 C -0.866,-2.533 -2.292,-7.685 -3.793,-9.232"
             style="fill:none;stroke:#009788;stroke-width:1;stroke-linecap:round;stroke-linejoin:round;stroke-miterlimit:10;stroke-dasharray:none;stroke-opacity:1"
             id="path646"
             inkscape:connector-curvature="0" />
        </g>
        <g
           id="g648"
           transform="translate(68.9253,92.0137)">
          <path
             d="M 0,0 C -1.123,-0.783 -2.771,-1.195 -2.771,-1.195"
             style="fill:none;stroke:#009788;stroke-width:1;stroke-linecap:round;stroke-linejoin:round;stroke-miterlimit:10;stroke-dasharray:none;stroke-opacity:1"
             id="path650"
             inkscape:connector-curvature="0" />
        </g>
        <g
           id="g652"
           transform="translate(66.9355,96.79)">
          <path
             d="M 0,0 H -1.605"
             style="fill:none;stroke:#009788;stroke-width:1;stroke-linecap:round;stroke-linejoin:round;stroke-miterlimit:10;stroke-dasharray:none;stroke-opacity:1"
             id="path654"
             inkscape:connector-curvature="0" />
        </g>
        <g
           id="g656"
           transform="translate(71.8809,105.7617)">
          <path
             d="m 0,0 c -0.311,-0.701 -0.953,-2.34 0.805,-3.677 1.759,-1.336 2.689,-0.335 3.093,0.436 0.404,0.767 0.505,1.364 0.505,1.364"
             style="fill:none;stroke:#009788;stroke-width:1;stroke-linecap:round;stroke-linejoin:round;stroke-miterlimit:10;stroke-dasharray:none;stroke-opacity:1"
             id="path658"
             inkscape:connector-curvature="0" />
        </g>
        <g
           id="g660"
           transform="translate(74.7354,97.5488)">
          <path
             d="m 0,0 c -0.958,-1.012 -0.725,-3.385 -0.157,-4.054 0.569,-0.669 2.976,-0.835 3.142,0 0.168,0.835 0,2.641 0,2.641"
             style="fill:none;stroke:#009788;stroke-width:1;stroke-linecap:round;stroke-linejoin:round;stroke-miterlimit:10;stroke-dasharray:none;stroke-opacity:1"
             id="path662"
             inkscape:connector-curvature="0" />
        </g>
        <g
           id="g664"
           transform="translate(73.7773,92.7598)">
          <path
             d="m 0,0 c 0.236,-0.657 -1.037,-1.939 -1.739,-1.941 -0.702,-10e-4 -1.761,1.846 -1.337,2.977 0.1,0.268 1.293,1.421 2.399,0.975"
             style="fill:none;stroke:#009788;stroke-width:1;stroke-linecap:round;stroke-linejoin:round;stroke-miterlimit:10;stroke-dasharray:none;stroke-opacity:1"
             id="path666"
             inkscape:connector-curvature="0" />
        </g>
        <g
           id="g668"
           transform="translate(70.604,70.4561)">
          <path
             d="M 0,0 C 4.577,0.212 10.03,2.736 13.458,0.422"
             style="fill:none;stroke:#009788;stroke-width:1;stroke-linecap:round;stroke-linejoin:round;stroke-miterlimit:10;stroke-dasharray:none;stroke-opacity:1"
             id="path670"
             inkscape:connector-curvature="0" />
        </g>
      </g>
    </g>
  </g>
</svg>
