<?xml version="1.0" encoding="UTF-8" standalone="no"?>
<!-- Created with Inkscape (http://www.inkscape.org/) -->

<svg
   xmlns:dc="http://purl.org/dc/elements/1.1/"
   xmlns:cc="http://creativecommons.org/ns#"
   xmlns:rdf="http://www.w3.org/1999/02/22-rdf-syntax-ns#"
   xmlns:svg="http://www.w3.org/2000/svg"
   xmlns="http://www.w3.org/2000/svg"
   xmlns:sodipodi="http://sodipodi.sourceforge.net/DTD/sodipodi-0.dtd"
   xmlns:inkscape="http://www.inkscape.org/namespaces/inkscape"
   width="210mm"
   height="297mm"
   viewBox="0 0 210 297"
   version="1.1"
   id="svg8"
   inkscape:version="0.92.4 (5da689c313, 2019-01-14)"
   sodipodi:docname="uvog.svg">
  <defs
     id="defs2">
    <pattern
       y="0"
       x="0"
       height="6"
       width="6"
       patternUnits="userSpaceOnUse"
       id="EMFhbasepattern" />
  </defs>
  <sodipodi:namedview
     id="base"
     pagecolor="#ffffff"
     bordercolor="#666666"
     borderopacity="1.0"
     inkscape:pageopacity="0.0"
     inkscape:pageshadow="2"
     inkscape:zoom="0.35"
     inkscape:cx="400"
     inkscape:cy="560"
     inkscape:document-units="mm"
     inkscape:current-layer="layer1"
     showgrid="false"
     inkscape:window-width="1366"
     inkscape:window-height="705"
     inkscape:window-x="-8"
     inkscape:window-y="-8"
     inkscape:window-maximized="1" />
  <metadata
     id="metadata5">
    <rdf:RDF>
      <cc:Work
         rdf:about="">
        <dc:format>image/svg+xml</dc:format>
        <dc:type
           rdf:resource="http://purl.org/dc/dcmitype/StillImage" />
        <dc:title></dc:title>
      </cc:Work>
    </rdf:RDF>
  </metadata>
  <g
     inkscape:label="Camada 1"
     inkscape:groupmode="layer"
     id="layer1">
    <path
       id="path13"
       d="m 88.562048,155.60297 c 5.005961,7.95556 12.236762,12.29501 21.692452,12.29501 9.45569,0 16.68649,-4.33945 22.24865,-12.29501 5.00597,-7.95555 7.78703,-19.52754 7.78703,-33.26892 V 36.992 H 160.314 v 86.06506 c 0,22.42063 -4.44973,39.77811 -13.90542,51.35011 -9.45569,12.295 -21.69245,18.08083 -36.15408,18.08083 -14.461626,0 -26.698412,-5.78583 -36.154077,-18.08083 C 64.644731,162.83517 60.195,145.47769 60.195,123.05706 V 36.992 h 20.023789 v 85.34205 c 0,13.74138 2.781096,25.31337 8.343259,33.26892 z"
       style="fill:#009788;fill-opacity:1;fill-rule:nonzero;stroke:none;stroke-width:7.92821741"
       inkscape:connector-curvature="0" />
  </g>
</svg>
